<svg xmlns="http://www.w3.org/2000/svg" viewBox="0 0 1600 600" width="1600" height="600">
  <defs>
    <linearGradient id="bg" x1="0" y1="0" x2="1" y2="1">
      <stop offset="0%" stop-color="#E8F4FD"/>
      <stop offset="100%" stop-color="#ffffff"/>
    </linearGradient>
    <radialGradient id="glow" cx="50%" cy="-20%" r="80%">
      <stop offset="0%" stop-color="#eaf5ff"/>
      <stop offset="100%" stop-color="transparent"/>
    </radialGradient>
    <linearGradient id="accent" x1="0" y1="0" x2="1" y2="0">
      <stop offset="0%" stop-color="#4A90E2"/>
      <stop offset="100%" stop-color="#7ED321"/>
    </linearGradient>
    <pattern id="dots" x="0" y="0" width="24" height="24" patternUnits="userSpaceOnUse">
      <circle cx="2" cy="2" r="2" fill="#d9ecff"/>
    </pattern>
  </defs>
  <rect width="1600" height="600" fill="url(#bg)"/>
  <rect width="1600" height="600" fill="url(#glow)"/>
  <rect x="0" y="0" width="1600" height="600" fill="url(#dots)" opacity="0.3"/>

  <!-- Stylized hospital building -->
  <g transform="translate(1100,290) scale(1.1)" opacity="0.12">
    <rect x="-220" y="-140" rx="16" ry="16" width="440" height="280" fill="#4A90E2"/>
    <rect x="-180" y="-100" width="360" height="200" fill="#ffffff" opacity="0.85"/>
    <g fill="#cfe3f7">
      <rect x="-150" y="-70" width="60" height="60" rx="6"/>
      <rect x="-70" y="-70" width="60" height="60" rx="6"/>
      <rect x="10" y="-70" width="60" height="60" rx="6"/>
      <rect x="90" y="-70" width="60" height="60" rx="6"/>
      <rect x="-150" y="20" width="60" height="60" rx="6"/>
      <rect x="-70" y="20" width="60" height="60" rx="6"/>
      <rect x="10" y="20" width="60" height="60" rx="6"/>
      <rect x="90" y="20" width="60" height="60" rx="6"/>
    </g>
    <rect x="-20" y="-120" width="40" height="40" rx="4" fill="url(#accent)"/>
    <rect x="-6" y="-110" width="12" height="20" fill="#fff"/>
    <rect x="-20" y="-104" width="40" height="8" fill="#fff"/>
  </g>

  <!-- Accent wave -->
  <path d="M0,480 C300,420 500,520 800,480 C1100,440 1300,520 1600,480 L1600,600 L0,600 Z" fill="#eef6ff"/>
  <path d="M0,520 C320,470 520,560 820,520 C1120,480 1320,560 1600,520 L1600,600 L0,600 Z" fill="#e3f1ff"/>

  <!-- Subtle left accent shapes -->
  <g opacity="0.2">
    <circle cx="200" cy="160" r="70" fill="url(#accent)"/>
    <circle cx="320" cy="120" r="24" fill="#4A90E2"/>
    <circle cx="260" cy="220" r="16" fill="#7ED321"/>
  </g>
</svg>


